<svg width="34" height="36" viewBox="0 0 34 36" fill="none" xmlns="http://www.w3.org/2000/svg">
<path d="M31.9882 23.1097L29.0002 23.9123L25.871 22.1016L30.3905 20.8879C30.6184 20.8267 30.8128 20.6772 30.9308 20.4724C31.0488 20.2676 31.0808 20.0242 31.0197 19.7957C30.9586 19.5673 30.8095 19.3725 30.6051 19.2543C30.4008 19.136 30.1579 19.1039 29.93 19.1652L23.6916 20.8405L21.6242 19.6442V16.356L23.6916 15.1597L29.93 16.835C30.1579 16.8962 30.4008 16.8642 30.6051 16.7459C30.8095 16.6277 30.9586 16.4329 31.0197 16.2044C31.0808 15.976 31.0488 15.7326 30.9308 15.5277C30.8128 15.3229 30.6184 15.1735 30.3905 15.1123L25.8711 13.8986L29.0002 12.0884L31.9882 12.8909C32.2154 12.9501 32.4568 12.9168 32.6597 12.7984C32.8625 12.6799 33.0105 12.4859 33.0712 12.2586C33.132 12.0313 33.1007 11.7892 32.9841 11.5849C32.8675 11.3807 32.675 11.2309 32.4487 11.1683L29.9642 10.5004L30.6299 8.01051C30.661 7.89715 30.6693 7.77877 30.6545 7.66217C30.6397 7.54556 30.6021 7.43304 30.5437 7.33107C30.4854 7.22911 30.4075 7.13971 30.3146 7.06801C30.2216 6.99632 30.1155 6.94375 30.0022 6.91332C29.8889 6.88289 29.7707 6.87521 29.6545 6.89072C29.5382 6.90623 29.4262 6.94462 29.3248 7.00368C29.2234 7.06274 29.1346 7.14132 29.0636 7.23488C28.9926 7.32844 28.9408 7.43514 28.9111 7.54885L28.1103 10.5434L24.9811 12.3541L26.1921 7.82458C26.2231 7.71122 26.2314 7.59284 26.2166 7.47624C26.2018 7.35963 26.1642 7.24711 26.1058 7.14515C26.0475 7.04318 25.9696 6.95378 25.8767 6.88208C25.7837 6.81039 25.6776 6.75782 25.5643 6.72739C25.451 6.69696 25.3328 6.68928 25.2166 6.70479C25.1003 6.7203 24.9883 6.75869 24.8869 6.81775C24.7855 6.87682 24.6967 6.95539 24.6257 7.04895C24.5547 7.14251 24.5029 7.24921 24.4732 7.36293L22.8017 13.6151L20.7342 14.8115L17.8932 13.1675V10.7748L22.1908 6.4677C22.3577 6.30046 22.4514 6.07363 22.4514 5.83711C22.4514 5.60059 22.3577 5.37376 22.1908 5.20651C22.0239 5.03927 21.7976 4.94531 21.5616 4.94531C21.3256 4.94531 21.0993 5.03927 20.9324 5.20651L17.8932 8.25262V4.63134L20.0805 2.43907C20.2462 2.27158 20.3389 2.04514 20.3383 1.80931C20.3378 1.57349 20.2441 1.34747 20.0777 1.18073C19.9113 1.01398 19.6858 0.920087 19.4505 0.919587C19.2152 0.919087 18.9892 1.01202 18.8221 1.17806L17.0034 3.00087L15.1848 1.17806C15.1023 1.09465 15.0042 1.0284 14.8961 0.983092C14.788 0.937788 14.672 0.91433 14.5548 0.914065C14.4377 0.913799 14.3216 0.936732 14.2133 0.981546C14.105 1.02636 14.0066 1.09217 13.9237 1.1752C13.8408 1.25824 13.7752 1.35685 13.7304 1.46539C13.6857 1.57394 13.6628 1.69026 13.6631 1.8077C13.6633 1.92513 13.6867 2.04136 13.7319 2.14971C13.7771 2.25806 13.8432 2.35639 13.9264 2.43907L16.1137 4.63134V8.25262L13.0745 5.2066C12.9076 5.03936 12.6813 4.9454 12.4453 4.9454C12.2093 4.9454 11.983 5.03936 11.8161 5.2066C11.6492 5.37385 11.5555 5.60068 11.5555 5.8372C11.5555 6.07372 11.6492 6.30055 11.8161 6.46779L16.1137 10.7749V13.1676L13.2725 14.8116L11.205 13.6152L9.63201 7.73157C9.56949 7.50476 9.42006 7.3119 9.21627 7.19503C9.01249 7.07816 8.77087 7.04675 8.54408 7.10765C8.31729 7.16855 8.12371 7.31682 8.00553 7.52015C7.88735 7.72348 7.85415 7.96538 7.91316 8.19314L9.02536 12.3541L5.89615 10.5434L5.09536 7.54885C5.06566 7.43514 5.01382 7.32844 4.94283 7.23488C4.87184 7.14132 4.78309 7.06274 4.68169 7.00368C4.58029 6.94462 4.46824 6.90623 4.35198 6.89072C4.23573 6.87521 4.11756 6.88289 4.00427 6.91332C3.89099 6.94375 3.78483 6.99632 3.69189 7.06801C3.59895 7.13971 3.52107 7.22911 3.46273 7.33107C3.40439 7.43304 3.36673 7.54556 3.35194 7.66217C3.33714 7.77877 3.34549 7.89715 3.37651 8.01051L4.04223 10.5004L1.55774 11.1676C1.44488 11.198 1.33909 11.2503 1.2464 11.3216C1.15371 11.3929 1.07595 11.4818 1.01755 11.5833C0.959144 11.6847 0.921248 11.7967 0.906023 11.9128C0.890798 12.0289 0.898541 12.1469 0.92881 12.26C0.959079 12.3731 1.01128 12.4791 1.08244 12.572C1.15359 12.6649 1.2423 12.7428 1.34351 12.8014C1.44472 12.8599 1.55644 12.8979 1.6723 12.9131C1.78815 12.9284 1.90587 12.9206 2.01873 12.8903L5.00674 12.0877L8.13587 13.8984L3.98422 15.0131C3.87135 15.0434 3.76555 15.0957 3.67284 15.167C3.58014 15.2383 3.50236 15.3272 3.44393 15.4286C3.32593 15.6334 3.29395 15.8768 3.35502 16.1053C3.41609 16.3337 3.56522 16.5285 3.76958 16.6468C3.97395 16.765 4.21682 16.7971 4.44476 16.7359L10.3153 15.1594L12.3827 16.3556V19.6437L10.3153 20.8399L4.44476 19.2634C4.21682 19.2022 3.97395 19.2343 3.76958 19.3525C3.56522 19.4708 3.41609 19.6656 3.35502 19.894C3.29395 20.1225 3.32593 20.3659 3.44393 20.5707C3.56193 20.7755 3.75627 20.925 3.98422 20.9862L8.13578 22.1009L5.00665 23.9111L2.01873 23.1085C1.79148 23.0494 1.55011 23.0827 1.34723 23.2011C1.14436 23.3196 0.996415 23.5136 0.93565 23.7409C0.874884 23.9682 0.906222 24.2103 1.02283 24.4145C1.13944 24.6188 1.33187 24.7685 1.55819 24.8312L4.04268 25.4984L3.37695 27.9883C3.34594 28.1017 3.33759 28.2201 3.35238 28.3367C3.36718 28.4533 3.40483 28.5658 3.46317 28.6678C3.52151 28.7697 3.59939 28.8591 3.69233 28.9308C3.78527 29.0025 3.89144 29.0551 4.00472 29.0855C4.118 29.1159 4.23617 29.1236 4.35243 29.1081C4.46868 29.0926 4.58073 29.0542 4.68213 28.9952C4.78353 28.9361 4.87228 28.8575 4.94328 28.764C5.01427 28.6704 5.0661 28.5637 5.0958 28.45L5.89659 25.4554L9.02581 23.6447L7.9136 27.8057C7.88234 27.9191 7.87378 28.0377 7.88844 28.1544C7.90309 28.2712 7.94066 28.3839 7.99898 28.486C8.0573 28.5882 8.13522 28.6777 8.22824 28.7496C8.32126 28.8214 8.42754 28.874 8.54097 28.9045C8.65439 28.935 8.77271 28.9426 8.8891 28.927C9.00549 28.9114 9.11765 28.8729 9.21911 28.8137C9.32058 28.7544 9.40934 28.6757 9.48028 28.5819C9.55122 28.4881 9.60294 28.3812 9.63245 28.2673L11.2055 22.3837L13.2729 21.1874L16.1137 22.8325V25.2252L11.5469 29.802C11.38 29.9693 11.2862 30.1961 11.2862 30.4326C11.2862 30.6691 11.38 30.896 11.5468 31.0632C11.7137 31.2304 11.94 31.3244 12.176 31.3244C12.412 31.3244 12.6383 31.2305 12.8052 31.0632L16.1137 27.7474V31.3687L13.9264 33.5609C13.8438 33.6437 13.7782 33.742 13.7335 33.8502C13.6888 33.9584 13.6658 34.0744 13.6658 34.1915C13.6658 34.3086 13.6888 34.4246 13.7335 34.5328C13.7782 34.641 13.8438 34.7393 13.9264 34.8221C14.009 34.9049 14.1071 34.9706 14.2151 35.0154C14.323 35.0602 14.4388 35.0832 14.5556 35.0832C14.6724 35.0832 14.7882 35.0602 14.8961 35.0154C15.0041 34.9705 15.1021 34.9048 15.1848 34.822L17.0034 32.9991L18.8221 34.8219C18.9046 34.9053 19.0027 34.9716 19.1108 35.0169C19.2189 35.0622 19.3349 35.0857 19.4521 35.0859C19.5692 35.0862 19.6853 35.0633 19.7936 35.0185C19.9019 34.9736 20.0003 34.9078 20.0832 34.8248C20.1661 34.7418 20.2317 34.6431 20.2765 34.5346C20.3212 34.4261 20.3441 34.3097 20.3438 34.1923C20.3436 34.0749 20.3202 33.9586 20.275 33.8503C20.2298 33.7419 20.1637 33.6436 20.0805 33.5609L17.8932 31.3687V27.7474L21.2017 31.0632C21.3686 31.2305 21.5949 31.3244 21.8309 31.3244C22.0669 31.3244 22.2932 31.2304 22.4601 31.0632C22.6269 30.896 22.7207 30.6691 22.7207 30.4326C22.7206 30.1961 22.6269 29.9693 22.46 29.802L17.8932 25.2252V22.8325L20.7344 21.1885L22.8019 22.3849L24.4734 28.6371C24.5031 28.7508 24.5549 28.8575 24.6259 28.951C24.6969 29.0446 24.7857 29.1232 24.8871 29.1822C24.9885 29.2413 25.1005 29.2797 25.2168 29.2952C25.333 29.3107 25.4512 29.303 25.5645 29.2726C25.6778 29.2422 25.7839 29.1896 25.8769 29.1179C25.9698 29.0462 26.0477 28.9568 26.106 28.8549C26.1644 28.7529 26.202 28.6404 26.2168 28.5238C26.2316 28.4072 26.2233 28.2888 26.1922 28.1754L24.9813 23.6459L28.1105 25.4566L28.9113 28.4511C28.941 28.5649 28.9928 28.6716 29.0638 28.7651C29.1348 28.8587 29.2235 28.9373 29.3249 28.9963C29.4263 29.0554 29.5384 29.0938 29.6546 29.1093C29.7709 29.1248 29.8891 29.1171 30.0024 29.0867C30.1156 29.0563 30.2218 29.0037 30.3147 28.932C30.4077 28.8603 30.4856 28.7709 30.5439 28.6689C30.6022 28.567 30.6399 28.4544 30.6547 28.3378C30.6695 28.2212 30.6611 28.1028 30.6301 27.9895L29.9642 25.4996L32.4487 24.8324C32.675 24.7697 32.8675 24.6199 32.9841 24.4157C33.1007 24.2115 33.132 23.9693 33.0712 23.742C33.0105 23.5147 32.8625 23.3207 32.6597 23.2023C32.4568 23.0838 32.2154 23.0505 31.9882 23.1097Z" fill="white"/>
</svg>
